<svg width="32" height="32" viewBox="0 0 32 32" fill="none" xmlns="http://www.w3.org/2000/svg">
<path d="M16 0.650391C20.4862 0.650391 23.2702 0.765497 25.1855 1.12695C27.0543 1.47964 28.0569 2.05888 28.999 3.00098C29.9479 3.9498 30.5269 4.95223 30.8779 6.81836C31.2378 8.73212 31.3496 11.5131 31.3496 16C31.3496 20.4869 31.2378 23.2679 30.8779 25.1816C30.5269 27.0478 29.9479 28.0502 28.999 28.999C28.0569 29.9411 27.0543 30.5204 25.1855 30.873C23.2702 31.2345 20.4862 31.3496 16 31.3496C11.5138 31.3496 8.72981 31.2345 6.81445 30.873C4.94568 30.5204 3.94305 29.9411 3.00098 28.999C2.05213 28.0502 1.47307 27.0478 1.12207 25.1816C0.762167 23.2679 0.650391 20.4869 0.650391 16C0.650391 11.5137 0.765505 8.73302 1.12695 6.81934C1.47938 4.95344 2.05821 3.95001 3.00098 3.00098C3.94305 2.05888 4.94568 1.47964 6.81445 1.12695C8.72981 0.765496 11.5138 0.650391 16 0.650391Z" stroke="black" stroke-width="1.3"/>
<path fill-rule="evenodd" clip-rule="evenodd" d="M13.4703 19.7907C12.4491 18.9773 11.8622 17.7628 11.8622 16.4617C11.8622 14.116 13.7702 12.208 16.116 12.208C17.417 12.208 18.6315 12.7948 19.4456 13.8161C20.258 14.8369 20.553 16.1656 20.2557 17.4573C19.8981 19.0108 18.6654 20.2436 17.1118 20.6013C16.7837 20.6766 16.4522 20.7145 16.1223 20.7145C15.1558 20.7145 14.2261 20.3922 13.4703 19.7907ZM16.1223 19.8638C16.3879 19.8638 16.6555 19.8333 16.9213 19.7723C18.1572 19.4877 19.1421 18.5027 19.4267 17.2665C19.6662 16.2259 19.4302 15.1628 18.7802 14.3461C18.1275 13.5272 17.1577 13.0587 16.116 13.0587C14.24 13.0587 12.7129 14.5858 12.7129 16.4617C12.7129 17.5033 13.1814 18.473 14.0001 19.1252C14.6048 19.6063 15.3476 19.8638 16.1223 19.8638Z" fill="black"/>
<path fill-rule="evenodd" clip-rule="evenodd" d="M24.6222 13.0587V20.7147C24.6222 21.8892 23.67 22.8413 22.4955 22.8413H9.73554C8.56102 22.8413 7.60889 21.8892 7.60889 20.7147V13.0587C7.60889 11.8842 8.56102 10.932 9.73555 10.932H11.8161L12.3796 10.0303C12.6905 9.5329 13.2357 9.23071 13.8223 9.23071H18.4087C18.9953 9.23071 19.5405 9.5329 19.8514 10.0303L20.415 10.932H22.4955C23.67 10.932 24.6222 11.8842 24.6222 13.0587ZM9.73555 11.7827C9.03083 11.7827 8.45955 12.354 8.45955 13.0587V20.7147C8.45955 21.4194 9.03083 21.9907 9.73554 21.9907H22.4955C23.2002 21.9907 23.7715 21.4194 23.7715 20.7147V13.0587C23.7715 12.354 23.2002 11.7827 22.4955 11.7827H20.415C20.1217 11.7827 19.8491 11.6316 19.6936 11.3829L19.1301 10.4812C18.9746 10.2325 18.702 10.0814 18.4087 10.0814H13.8223C13.529 10.0814 13.2564 10.2325 13.101 10.4812L12.5374 11.3829C12.382 11.6316 12.1094 11.7827 11.8161 11.7827H9.73555Z" fill="black"/>
<path d="M13.4703 19.7907L13.299 20.0058L13.2991 20.0059L13.4703 19.7907ZM19.4456 13.8161L19.6608 13.6449L19.6606 13.6447L19.4456 13.8161ZM20.2557 17.4573L19.9877 17.3956L19.9877 17.3956L20.2557 17.4573ZM17.1118 20.6013L17.1734 20.8693L17.1736 20.8693L17.1118 20.6013ZM16.9213 19.7723L16.9828 20.0403L16.983 20.0403L16.9213 19.7723ZM19.4267 17.2665L19.1587 17.2048L19.1587 17.2048L19.4267 17.2665ZM18.7802 14.3461L18.9954 14.1748L18.9952 14.1747L18.7802 14.3461ZM14.0001 19.1252L13.8288 19.3403L13.8289 19.3404L14.0001 19.1252ZM11.8161 10.932V11.207H11.9685L12.0493 11.0778L11.8161 10.932ZM12.3796 10.0303L12.6128 10.1761L12.3796 10.0303ZM19.8514 10.0303L20.0846 9.88459V9.88459L19.8514 10.0303ZM20.415 10.932L20.1818 11.0778L20.2626 11.207H20.415V10.932ZM19.6936 11.3829L19.9268 11.2371L19.6936 11.3829ZM19.1301 10.4812L18.8969 10.6269L19.1301 10.4812ZM13.101 10.4812L12.8678 10.3354V10.3354L13.101 10.4812ZM12.5374 11.3829L12.7706 11.5286L12.5374 11.3829ZM11.5872 16.4617C11.5872 17.8469 12.2125 19.1404 13.299 20.0058L13.6417 19.5756C12.6856 18.8141 12.1372 17.6786 12.1372 16.4617H11.5872ZM16.116 11.933C13.6183 11.933 11.5872 13.9641 11.5872 16.4617H12.1372C12.1372 14.2679 13.9221 12.483 16.116 12.483V11.933ZM19.6606 13.6447C18.7946 12.5583 17.5011 11.933 16.116 11.933V12.483C17.3328 12.483 18.4684 13.0313 19.2306 13.9875L19.6606 13.6447ZM20.5237 17.519C20.8394 16.1473 20.5264 14.7326 19.6608 13.6449L19.2304 13.9874C19.9896 14.9413 20.2666 16.1839 19.9877 17.3956L20.5237 17.519ZM17.1736 20.8693C18.8297 20.488 20.1424 19.1751 20.5237 17.519L19.9877 17.3956C19.6537 18.8466 18.5011 19.9992 17.0501 20.3333L17.1736 20.8693ZM16.1223 20.9895C16.4733 20.9895 16.8254 20.9492 17.1734 20.8693L17.0503 20.3333C16.742 20.4041 16.4311 20.4395 16.1223 20.4395V20.9895ZM13.2991 20.0059C14.104 20.6464 15.0941 20.9895 16.1223 20.9895V20.4395C15.2176 20.4395 14.3483 20.138 13.6416 19.5756L13.2991 20.0059ZM16.8597 19.5042C16.6138 19.5607 16.3667 19.5888 16.1223 19.5888V20.1388C16.409 20.1388 16.6973 20.1058 16.9828 20.0403L16.8597 19.5042ZM19.1587 17.2048C18.8977 18.3384 17.9929 19.2433 16.8595 19.5043L16.983 20.0403C18.3215 19.732 19.3865 18.667 19.6947 17.3282L19.1587 17.2048ZM18.565 14.5173C19.1616 15.2669 19.3799 16.2439 19.1587 17.2048L19.6947 17.3282C19.9526 16.208 19.6988 15.0586 18.9954 14.1748L18.565 14.5173ZM16.116 13.3337C17.0735 13.3337 17.9643 13.7637 18.5652 14.5175L18.9952 14.1747C18.2907 13.2908 17.2419 12.7837 16.116 12.7837V13.3337ZM12.9879 16.4617C12.9879 14.7377 14.3919 13.3337 16.116 13.3337V12.7837C14.0881 12.7837 12.4379 14.4339 12.4379 16.4617H12.9879ZM14.1715 18.9101C13.4179 18.3098 12.9879 17.4191 12.9879 16.4617H12.4379C12.4379 17.5875 12.9449 18.6362 13.8288 19.3403L14.1715 18.9101ZM16.1223 19.5888C15.4092 19.5888 14.7269 19.3521 14.1713 18.91L13.8289 19.3404C14.4827 19.8606 15.2859 20.1388 16.1223 20.1388V19.5888ZM24.8972 20.7147V13.0587H24.3472V20.7147H24.8972ZM22.4955 23.1163C23.8219 23.1163 24.8972 22.0411 24.8972 20.7147H24.3472C24.3472 21.7373 23.5181 22.5663 22.4955 22.5663V23.1163ZM9.73554 23.1163H22.4955V22.5663H9.73554V23.1163ZM7.33389 20.7147C7.33389 22.0411 8.40915 23.1163 9.73554 23.1163V22.5663C8.7129 22.5663 7.88389 21.7373 7.88389 20.7147H7.33389ZM7.33389 13.0587V20.7147H7.88389V13.0587H7.33389ZM9.73555 10.657C8.40915 10.657 7.33389 11.7323 7.33389 13.0587H7.88389C7.88389 12.0361 8.7129 11.207 9.73555 11.207V10.657ZM11.8161 10.657H9.73555V11.207H11.8161V10.657ZM12.1464 9.88459L11.5829 10.7863L12.0493 11.0778L12.6128 10.1761L12.1464 9.88459ZM13.8223 8.95571C13.1409 8.95571 12.5076 9.30675 12.1464 9.88459L12.6128 10.1761C12.8735 9.75906 13.3306 9.50571 13.8223 9.50571V8.95571ZM18.4087 8.95571H13.8223V9.50571H18.4087V8.95571ZM20.0846 9.88459C19.7235 9.30675 19.0901 8.95571 18.4087 8.95571V9.50571C18.9005 9.50571 19.3576 9.75906 19.6182 10.1761L20.0846 9.88459ZM20.6482 10.7863L20.0846 9.88459L19.6182 10.1761L20.1818 11.0778L20.6482 10.7863ZM22.4955 10.657H20.415V11.207H22.4955V10.657ZM24.8972 13.0587C24.8972 11.7323 23.8219 10.657 22.4955 10.657V11.207C23.5181 11.207 24.3472 12.0361 24.3472 13.0587H24.8972ZM8.73455 13.0587C8.73455 12.5059 9.18271 12.0577 9.73555 12.0577V11.5077C8.87895 11.5077 8.18455 12.2021 8.18455 13.0587H8.73455ZM8.73455 20.7147V13.0587H8.18455V20.7147H8.73455ZM9.73554 21.7157C9.18271 21.7157 8.73455 21.2675 8.73455 20.7147H8.18455C8.18455 21.5713 8.87895 22.2657 9.73554 22.2657V21.7157ZM22.4955 21.7157H9.73554V22.2657H22.4955V21.7157ZM23.4965 20.7147C23.4965 21.2675 23.0483 21.7157 22.4955 21.7157V22.2657C23.3521 22.2657 24.0465 21.5713 24.0465 20.7147H23.4965ZM23.4965 13.0587V20.7147H24.0465V13.0587H23.4965ZM22.4955 12.0577C23.0483 12.0577 23.4965 12.5059 23.4965 13.0587H24.0465C24.0465 12.2021 23.3521 11.5077 22.4955 11.5077V12.0577ZM20.415 12.0577H22.4955V11.5077H20.415V12.0577ZM19.4604 11.5286C19.6661 11.8578 20.0269 12.0577 20.415 12.0577V11.5077C20.2165 11.5077 20.032 11.4055 19.9268 11.2371L19.4604 11.5286ZM18.8969 10.6269L19.4604 11.5286L19.9268 11.2371L19.3633 10.3354L18.8969 10.6269ZM18.4087 10.3564C18.6072 10.3564 18.7917 10.4586 18.8969 10.6269L19.3633 10.3354C19.1576 10.0063 18.7968 9.80638 18.4087 9.80638V10.3564ZM13.8223 10.3564H18.4087V9.80638H13.8223V10.3564ZM13.3342 10.6269C13.4394 10.4586 13.6239 10.3564 13.8223 10.3564V9.80638C13.4342 9.80638 13.0735 10.0063 12.8678 10.3354L13.3342 10.6269ZM12.7706 11.5286L13.3342 10.6269L12.8678 10.3354L12.3042 11.2371L12.7706 11.5286ZM11.8161 12.0577C12.2042 12.0577 12.5649 11.8578 12.7706 11.5286L12.3042 11.2371C12.199 11.4055 12.0145 11.5077 11.8161 11.5077V12.0577ZM9.73555 12.0577H11.8161V11.5077H9.73555V12.0577Z" fill="black"/>
</svg>
