<svg width="65" height="64" viewBox="0 0 65 64" fill="none" xmlns="http://www.w3.org/2000/svg">
<path d="M32.9111 63C23.9415 63 18.3463 62.7706 14.4839 62.0417C10.6933 61.3263 8.632 60.1413 6.70093 58.2102L5.99382 58.9173L6.70091 58.2102C4.75631 56.2656 3.57188 54.2042 2.85985 50.4181C2.1341 46.559 1.91113 40.9705 1.91113 32C1.91113 23.0303 2.14056 17.4417 2.86945 13.5827C3.58459 9.79652 4.76924 7.73379 6.70203 5.78868C8.63279 3.85821 10.694 2.6736 14.4839 1.95835C18.3463 1.22943 23.9415 1 32.9111 1C41.8808 1 47.476 1.22943 51.3383 1.95835C55.129 2.67374 57.1903 3.85866 59.1213 5.78978L59.8284 5.08268L59.1213 5.78979C61.0659 7.73435 62.2503 9.79575 62.9624 13.5819C63.6881 17.441 63.9111 23.0295 63.9111 32C63.9111 40.9705 63.6881 46.559 62.9624 50.4181C62.2503 54.2042 61.0659 56.2657 59.1213 58.2102L59.8284 58.9173L59.1213 58.2102C57.1903 60.1413 55.129 61.3263 51.3383 62.0417C47.476 62.7706 41.8808 63 32.9111 63Z" stroke="black" stroke-width="2"/>
<path d="M27.9502 41.5781V47.0273L24.1221 41.5781H22.9111V49H24.083V43.5508L27.9307 49H29.1221V41.5781H27.9502Z" fill="black"/>
<path d="M36.4854 42.6914V41.5781H31.3486V49H32.5791V45.7773H35.6064V44.7031H32.5791V42.6914H36.4854Z" fill="black"/>
<path d="M40.5674 49.0977C42.1104 49.0977 43.2627 48.2578 43.6924 46.9102L42.54 46.5195C42.2471 47.5156 41.5635 48.0234 40.5674 48.0234C39.1807 48.0234 38.3213 46.9883 38.3213 45.2891C38.3213 43.6289 39.2197 42.5547 40.5674 42.5547C41.5635 42.5547 42.2471 43.0625 42.54 44.0586L43.6924 43.668C43.2432 42.2617 42.1104 41.4805 40.5674 41.4805C38.4971 41.4805 37.0518 43.043 37.0518 45.2891C37.0518 47.5938 38.458 49.0977 40.5674 49.0977Z" fill="black"/>
<path d="M39.7093 31.8867C39.5763 31.815 39.4077 31.6725 39.3346 31.57C39.2615 31.4674 39.1733 31.2704 39.1386 31.132C39.1039 30.9937 39.0925 30.8057 39.1131 30.7142C39.1338 30.6226 39.2586 30.2774 39.3906 29.947C39.5225 29.6166 39.7457 28.9666 39.8865 28.5026C40.0274 28.0386 40.2067 27.3374 40.2849 26.9442C40.3632 26.5511 40.4685 25.8847 40.519 25.4633C40.5768 24.9813 40.6108 24.2543 40.6108 23.5032C40.6108 22.7604 40.5767 22.0248 40.5206 21.5566C40.471 21.1428 40.3794 20.5383 40.317 20.2134C40.2547 19.8885 40.1257 19.3272 40.0303 18.966C39.9349 18.6048 39.6888 17.866 39.4835 17.3242C39.2068 16.5945 39.1106 16.2682 39.1124 16.0652C39.1139 15.8878 39.1599 15.7136 39.2428 15.5714C39.3132 15.4505 39.4589 15.2803 39.5666 15.1933C39.7049 15.0814 39.8511 15.0271 40.0652 15.0083C40.2318 14.9936 40.4332 14.999 40.5128 15.0202C40.5924 15.0413 40.7558 15.1529 40.876 15.268C41.0344 15.4199 41.1657 15.6501 41.3538 16.1056C41.4965 16.4511 41.7126 17.0396 41.8341 17.4134C41.9556 17.7872 42.1429 18.4641 42.2502 18.9176C42.3575 19.3711 42.4976 20.0779 42.5616 20.4883C42.6256 20.8988 42.7037 21.557 42.7351 21.951C42.7665 22.345 42.7923 23.0435 42.7923 23.5032C42.7923 23.9629 42.7665 24.6613 42.7351 25.0554C42.7037 25.4494 42.6259 26.1076 42.5621 26.518C42.4984 26.9284 42.3496 27.6672 42.2314 28.1597C42.1133 28.6523 41.8975 29.4045 41.7519 29.8313C41.6063 30.2582 41.3822 30.8351 41.2539 31.1134C41.096 31.4557 40.9519 31.6767 40.8086 31.7962C40.6422 31.935 40.5272 31.9778 40.2739 31.995C40.0243 32.0121 39.8963 31.9875 39.7093 31.8867ZM36.1743 30.2774C36.0782 30.2461 35.884 30.0894 35.7427 29.9291C35.5396 29.6989 35.4773 29.5779 35.4453 29.3518C35.4106 29.106 35.4305 29.0023 35.5872 28.6128C35.6875 28.3636 35.8798 27.8226 36.0145 27.4104C36.1492 26.9983 36.3232 26.3267 36.401 25.918C36.4789 25.5092 36.5711 24.7897 36.6058 24.3191C36.6525 23.6855 36.6524 23.2516 36.6054 22.6475C36.5705 22.1987 36.4793 21.502 36.4028 21.0993C36.3262 20.6965 36.1849 20.1062 36.0886 19.7875C35.9924 19.4688 35.8175 18.9728 35.6999 18.6853C35.5823 18.3979 35.4688 18.0787 35.4476 17.9762C35.4263 17.8736 35.4402 17.6713 35.4785 17.5261C35.5211 17.3648 35.6338 17.1716 35.7691 17.0282C35.8906 16.8993 36.0801 16.7623 36.1903 16.7237C36.3004 16.6852 36.5044 16.6672 36.6435 16.6839C36.795 16.702 36.9899 16.7835 37.1293 16.887C37.2917 17.0076 37.4175 17.1781 37.5452 17.4505C37.6459 17.6653 37.8305 18.1287 37.9555 18.4804C38.0804 18.8321 38.2681 19.4748 38.3726 19.9086C38.4771 20.3424 38.6085 21.0062 38.6647 21.3838C38.7434 21.9132 38.8468 22.2559 38.8455 23.3838C38.844 24.6309 38.7443 25.1139 38.6341 25.798C38.563 26.2393 38.4209 26.9243 38.3183 27.3203C38.2157 27.7163 38.0281 28.3224 37.9014 28.6672C37.7747 29.012 37.601 29.4409 37.5155 29.6203C37.4165 29.8282 37.2751 30.01 37.1259 30.1212C36.9633 30.2424 36.8087 30.3017 36.6204 30.3151C36.4711 30.3256 36.2704 30.3087 36.1743 30.2774H36.1743ZM32.353 28.136C32.2601 28.1112 32.1284 28.0592 32.0604 28.0204C31.9923 27.9816 31.3718 27.4875 30.6814 26.9224C29.9911 26.3573 28.9198 25.48 28.3007 24.9729C27.6815 24.4657 26.9685 23.9074 26.7161 23.7322C26.4637 23.557 26.2168 23.4136 26.1674 23.4136C26.0933 23.4136 26.0776 23.4897 26.0779 23.8464C26.0782 24.0845 26.1415 24.601 26.2186 24.9943C26.2958 25.3876 26.3589 25.8963 26.3589 26.1247C26.3589 26.4237 26.326 26.6121 26.2415 26.7972C26.1769 26.9387 26.0491 27.1111 25.9575 27.1803C25.8658 27.2496 25.6951 27.3198 25.578 27.3365C25.4294 27.3576 25.2966 27.3296 25.1373 27.2434C25.0119 27.1755 24.8057 26.9952 24.6792 26.8427C24.5526 26.6902 24.3982 26.4212 24.336 26.2449C24.2738 26.0687 24.1661 25.6483 24.0966 25.3108C23.9868 24.7772 23.9101 24.5045 23.9111 23.3624C23.9121 22.2275 23.9899 21.9852 24.0996 21.4435C24.1694 21.0988 24.2899 20.669 24.3673 20.4885C24.4447 20.308 24.5636 20.0973 24.6315 20.0202C24.6993 19.9431 24.8232 19.8422 24.9068 19.7961C24.9904 19.75 25.1325 19.7122 25.2226 19.7122C25.3127 19.7122 25.4822 19.7812 25.5992 19.8654C25.7163 19.9497 26.486 20.5756 27.3096 21.2562C28.1333 21.9369 29.415 22.9916 30.158 23.6001C30.9009 24.2086 31.5892 24.7684 31.6876 24.8442C31.786 24.9199 31.903 24.967 31.9477 24.9488C31.9964 24.929 32.0533 24.7643 32.0896 24.5378C32.1229 24.3299 32.1641 24.0078 32.1811 23.8219C32.1982 23.636 32.1857 23.2114 32.1535 22.8784C32.1213 22.5453 32.0341 22.0257 31.9599 21.7238C31.8856 21.4219 31.7462 20.9734 31.6501 20.7272C31.5541 20.481 31.4479 20.1049 31.4142 19.8914C31.3684 19.6008 31.3699 19.4383 31.4202 19.2448C31.4572 19.1026 31.5698 18.8909 31.6704 18.7744C31.8236 18.5971 31.901 18.5577 32.1448 18.5329C32.3156 18.5155 32.5066 18.5341 32.6066 18.5781C32.7003 18.6193 32.9028 18.799 33.0566 18.9775C33.2104 19.1559 33.4229 19.4957 33.5288 19.7325C33.6347 19.9692 33.8098 20.4444 33.9178 20.7883C34.0259 21.1323 34.161 21.642 34.2181 21.9211C34.2991 22.317 34.3822 22.6846 34.3822 23.5927C34.3822 24.5019 34.2991 24.868 34.2179 25.2643C34.1607 25.5434 34.0512 25.9835 33.9744 26.2422C33.8977 26.501 33.7471 26.9172 33.6397 27.1671C33.5323 27.4171 33.3888 27.6849 33.3208 27.7622C33.2529 27.8395 33.1331 27.9516 33.0546 28.0112C32.9762 28.0709 32.8242 28.1335 32.7169 28.1503C32.6096 28.1672 32.4459 28.1608 32.353 28.136Z" fill="black"/>
</svg>
