<svg width="25" height="24" viewBox="0 0 25 24" fill="none" xmlns="http://www.w3.org/2000/svg">
<path d="M12.5 0.650391C15.8664 0.650391 17.94 0.737002 19.3594 1.00488C20.5605 1.23159 21.2629 1.5817 21.876 2.12207L22.1348 2.36523C22.8211 3.05156 23.2412 3.77371 23.499 5.14453C23.7657 6.56274 23.8496 8.6334 23.8496 12C23.8496 15.3666 23.7657 17.4373 23.499 18.8555C23.2735 20.0548 22.9235 20.7575 22.3799 21.374L22.1348 21.6348C21.4537 22.3159 20.7321 22.736 19.3594 22.9951C17.94 23.263 15.8664 23.3496 12.5 23.3496C9.13359 23.3496 7.06004 23.263 5.64062 22.9951C4.43954 22.7684 3.73711 22.4183 3.12402 21.8779L2.86523 21.6348C2.17889 20.9484 1.75877 20.2263 1.50098 18.8555C1.23434 17.4373 1.15039 15.3666 1.15039 12C1.15039 8.63358 1.23702 6.56267 1.50488 5.14453C1.76389 3.7733 2.18454 3.05114 2.86719 2.36426L2.86621 2.36328C3.54689 1.68302 4.26893 1.26379 5.64062 1.00488C7.06004 0.737002 9.13359 0.650391 12.5 0.650391Z" stroke="black" stroke-width="1.3"/>
<path d="M17.2141 17.92C17.1155 17.8694 16.9904 17.7688 16.9362 17.6964C16.882 17.6241 16.8166 17.485 16.7909 17.3873C16.7652 17.2897 16.7567 17.1569 16.772 17.0923C16.7873 17.0277 16.8799 16.7841 16.9777 16.5508C17.0755 16.3176 17.241 15.8588 17.3455 15.5313C17.4499 15.2037 17.5828 14.7087 17.6409 14.4312C17.6989 14.1537 17.777 13.6833 17.8144 13.3859C17.8573 13.0456 17.8825 12.5325 17.8825 12.0022C17.8825 11.4779 17.8572 10.9587 17.8156 10.6282C17.7788 10.3361 17.7109 9.90939 17.6647 9.68005C17.6185 9.45071 17.5228 9.05447 17.4521 8.79952C17.3813 8.54457 17.1989 8.02307 17.0466 7.64064C16.8415 7.12555 16.7702 6.89518 16.7715 6.75188C16.7726 6.62668 16.8067 6.50373 16.8681 6.40332C16.9204 6.31799 17.0284 6.19789 17.1082 6.13641C17.2108 6.05742 17.3192 6.01913 17.4779 6.00584C17.6014 5.99549 17.7508 5.99927 17.8098 6.01423C17.8688 6.02919 17.99 6.10793 18.0791 6.18921C18.1966 6.29637 18.294 6.45887 18.4334 6.78041C18.5392 7.02428 18.6995 7.43971 18.7896 7.70358C18.8797 7.96745 19.0185 8.44525 19.098 8.76535C19.1776 9.08545 19.2815 9.5844 19.329 9.87412C19.3765 10.1638 19.4344 10.6284 19.4576 10.9066C19.4809 11.1847 19.5 11.6778 19.5 12.0022C19.5 12.3267 19.4809 12.8198 19.4576 13.0979C19.4344 13.376 19.3766 13.8406 19.3294 14.1304C19.2821 14.4201 19.1717 14.9416 19.0842 15.2892C18.9966 15.6369 18.8366 16.1679 18.7286 16.4692C18.6207 16.7705 18.4545 17.1777 18.3593 17.3742C18.2423 17.6158 18.1354 17.7718 18.0292 17.8562C17.9058 17.9541 17.8205 17.9843 17.6327 17.9965C17.4476 18.0085 17.3527 17.9912 17.2141 17.92ZM14.5929 16.784C14.5217 16.7619 14.3776 16.6513 14.2729 16.5382C14.1223 16.3757 14.0761 16.2902 14.0524 16.1307C14.0266 15.9572 14.0414 15.8839 14.1576 15.609C14.232 15.4331 14.3745 15.0512 14.4744 14.7603C14.5743 14.4694 14.7033 13.9953 14.761 13.7068C14.8188 13.4183 14.8871 12.9104 14.9128 12.5782C14.9475 12.1309 14.9474 11.8247 14.9126 11.3982C14.8867 11.0815 14.8191 10.5897 14.7623 10.3054C14.7056 10.0211 14.6007 9.60437 14.5294 9.37941C14.458 9.15444 14.3283 8.80435 14.2412 8.60142C14.154 8.39849 14.0698 8.17323 14.0541 8.10085C14.0383 8.02839 14.0486 7.88562 14.077 7.78316C14.1086 7.66926 14.1922 7.53289 14.2924 7.43165C14.3825 7.34068 14.5231 7.24397 14.6047 7.21675C14.6864 7.18953 14.8377 7.17686 14.9408 7.1886C15.0531 7.20139 15.1977 7.25893 15.301 7.33201C15.4214 7.41713 15.5147 7.53746 15.6094 7.72973C15.6841 7.88135 15.821 8.20853 15.9136 8.45678C16.0063 8.70504 16.1454 9.15868 16.2229 9.46488C16.3004 9.77108 16.3978 10.2397 16.4395 10.5062C16.4979 10.8799 16.5745 11.1218 16.5735 11.918C16.5724 12.7983 16.4985 13.1392 16.4168 13.6221C16.3641 13.9336 16.2587 14.4172 16.1827 14.6967C16.1066 14.9762 15.9675 15.4041 15.8735 15.6474C15.7796 15.8908 15.6508 16.1936 15.5874 16.3202C15.514 16.467 15.4091 16.5953 15.2985 16.6738C15.1779 16.7594 15.0633 16.8012 14.9237 16.8106C14.813 16.8181 14.6642 16.8061 14.5929 16.784H14.5929ZM11.7595 15.2725C11.6906 15.255 11.593 15.2182 11.5425 15.1909C11.492 15.1635 11.0319 14.8147 10.5201 14.4158C10.0082 14.0169 9.21381 13.3977 8.75475 13.0397C8.29569 12.6817 7.76698 12.2876 7.57984 12.1639C7.3927 12.0402 7.2096 11.939 7.17295 11.939C7.11802 11.939 7.10637 11.9927 7.10665 12.2445C7.10681 12.4126 7.15378 12.7772 7.21098 13.0548C7.26818 13.3324 7.31498 13.6915 7.31498 13.8527C7.31498 14.0638 7.2906 14.1967 7.22793 14.3275C7.18006 14.4273 7.08528 14.549 7.01732 14.5979C6.94935 14.6468 6.82275 14.6964 6.73598 14.7081C6.62573 14.723 6.5273 14.7032 6.40916 14.6424C6.31618 14.5945 6.16332 14.4672 6.06948 14.3596C5.97564 14.2519 5.86114 14.062 5.81504 13.9376C5.76893 13.8132 5.68906 13.5164 5.63754 13.2782C5.55608 12.9016 5.49926 12.7091 5.50001 11.9029C5.50075 11.1018 5.55837 10.9307 5.63972 10.5484C5.6915 10.305 5.78084 10.0016 5.83825 9.87424C5.89566 9.74683 5.9838 9.59806 6.03412 9.54364C6.08443 9.48922 6.17631 9.41806 6.23829 9.38549C6.30028 9.35293 6.40564 9.32628 6.47243 9.32628C6.53923 9.32628 6.6649 9.37495 6.7517 9.43443C6.8385 9.49391 7.4092 9.93569 8.01993 10.4162C8.63066 10.8966 9.58105 11.6412 10.1319 12.0707C10.6828 12.5002 11.1932 12.8953 11.2661 12.9488C11.3391 13.0023 11.4258 13.0355 11.459 13.0227C11.4951 13.0087 11.5372 12.8925 11.5642 12.7326C11.5889 12.5858 11.6194 12.3584 11.6321 12.2272C11.6447 12.096 11.6355 11.7963 11.6116 11.5612C11.5877 11.3261 11.5231 10.9594 11.468 10.7462C11.4129 10.5331 11.3096 10.2165 11.2383 10.0427C11.1671 9.86894 11.0884 9.60345 11.0634 9.45276C11.0294 9.24762 11.0305 9.13295 11.0678 8.9963C11.0952 8.89594 11.1787 8.74653 11.2534 8.66429C11.3669 8.53915 11.4243 8.51134 11.6051 8.49379C11.7318 8.4815 11.8734 8.49469 11.9475 8.5257C12.017 8.55477 12.1672 8.68164 12.2812 8.80762C12.3952 8.93361 12.5528 9.17343 12.6313 9.34056C12.7099 9.50769 12.8397 9.84308 12.9198 10.0859C12.9999 10.3287 13.1001 10.6885 13.1424 10.8855C13.2025 11.1649 13.2641 11.4244 13.2641 12.0654C13.2641 12.7072 13.2025 12.9656 13.1423 13.2454C13.0999 13.4424 13.0186 13.753 12.9618 13.9357C12.9049 14.1183 12.7932 14.4121 12.7136 14.5886C12.6339 14.765 12.5275 14.954 12.4771 15.0086C12.4267 15.0632 12.3379 15.1423 12.2797 15.1844C12.2216 15.2265 12.1089 15.2707 12.0293 15.2826C11.9498 15.2945 11.8283 15.2899 11.7595 15.2725Z" fill="black"/>
</svg>
