<svg width="32" height="32" viewBox="0 0 32 32" fill="none" xmlns="http://www.w3.org/2000/svg">
<path fill-rule="evenodd" clip-rule="evenodd" d="M16 32C7.04054 32 4.62883 31.5462 2.54134 29.4587C0.440812 27.3582 0 24.9595 0 16C0 7.04054 0.453809 4.64182 2.54134 2.54134C4.62883 0.453809 7.04054 0 16 0C24.9595 0 27.3712 0.453809 29.4587 2.54134C31.5591 4.64182 32 7.04054 32 16C32 24.9595 31.5591 27.3582 29.4587 29.4587C27.3712 31.5462 24.9595 32 16 32Z" fill="#8CC841"/>
<path d="M15.8006 22.5257H22.4035C22.8825 22.5257 23.1519 22.4958 23.2125 22.4355C23.2723 22.3756 23.3024 22.1058 23.3024 21.6262V15.2548C23.3024 14.7756 23.2723 14.5056 23.2125 14.4455C23.1519 14.3856 22.8825 14.3555 22.4035 14.3555H15.8006C15.3209 14.3555 15.0511 14.3856 14.9912 14.4455C14.9306 14.5056 14.9009 14.7756 14.9009 15.2548V21.6262C14.9009 22.1058 14.9306 22.3756 14.9912 22.4355C15.0511 22.4958 15.3209 22.5257 15.8006 22.5257ZM15.0552 25.8911C14.0791 25.8911 13.2441 25.5442 12.5502 24.8506C11.8567 24.1569 11.5098 23.3219 11.5098 22.3457V14.5354C11.5098 13.559 11.8567 12.7239 12.5502 12.0304C13.2441 11.3368 14.0791 10.99 15.0552 10.99H23.3024V6.1085H26.668V25.8911H15.0552Z" fill="white"/>
<path d="M5.33203 12.8393V25.8911H8.69723V12.8393H5.33203Z" fill="white"/>
<path d="M5.33203 9.47388V6.10838H8.69723V9.47388H5.33203Z" fill="white"/>
</svg>
