<svg width="32" height="33" viewBox="0 0 32 33" fill="none" xmlns="http://www.w3.org/2000/svg">
<path fill-rule="evenodd" clip-rule="evenodd" d="M16 32.04C7.04054 32.04 4.62883 31.5862 2.54134 29.4987C0.440812 27.3982 0 24.9995 0 16.04C0 7.08055 0.453809 4.68183 2.54134 2.58135C4.62883 0.493818 7.04054 0.0400085 16 0.0400085C24.9595 0.0400085 27.3712 0.493818 29.4587 2.58135C31.5591 4.68183 32 7.08055 32 16.04C32 24.9995 31.5591 27.3982 29.4587 29.4987C27.3712 31.5862 24.9595 32.04 16 32.04Z" fill="#8CC841"/>
<path d="M15.8006 22.5658H22.4035C22.8825 22.5658 23.1519 22.5359 23.2125 22.4757C23.2723 22.4157 23.3024 22.146 23.3024 21.6663V15.2949C23.3024 14.8158 23.2723 14.5457 23.2125 14.4856C23.1519 14.4258 22.8825 14.3956 22.4035 14.3956H15.8006C15.3209 14.3956 15.0511 14.4258 14.9912 14.4856C14.9306 14.5457 14.9009 14.8158 14.9009 15.2949V21.6663C14.9009 22.146 14.9306 22.4157 14.9912 22.4757C15.0511 22.5359 15.3209 22.5658 15.8006 22.5658ZM15.0552 25.9312C14.0791 25.9312 13.2441 25.5843 12.5502 24.8907C11.8567 24.1971 11.5098 23.362 11.5098 22.3858V14.5756C11.5098 13.5991 11.8567 12.7641 12.5502 12.0705C13.2441 11.3769 14.0791 11.0302 15.0552 11.0302H23.3024V6.14863H26.668V25.9312H15.0552Z" fill="white"/>
<path d="M5.33252 12.8794V25.9312H8.69771V12.8794H5.33252Z" fill="white"/>
<path d="M5.33252 9.51392V6.14842H8.69771V9.51392H5.33252Z" fill="white"/>
</svg>
