<svg width="65" height="64" viewBox="0 0 65 64" fill="none" xmlns="http://www.w3.org/2000/svg">
<path fill-rule="evenodd" clip-rule="evenodd" d="M32.9111 64C14.9922 64 10.1688 63.0924 5.99382 58.9173C1.79276 54.7164 0.911133 49.9189 0.911133 32C0.911133 14.0811 1.81875 9.28364 5.99382 5.08268C10.1688 0.907618 14.9922 0 32.9111 0C50.83 0 55.6535 0.907618 59.8284 5.08268C64.0294 9.28364 64.9111 14.0811 64.9111 32C64.9111 49.9189 64.0294 54.7164 59.8284 58.9173C55.6535 63.0924 50.83 64 32.9111 64Z" fill="black"/>
<path d="M52.2779 38.4893H43.285C42.0435 38.4893 41.0369 37.4827 41.0369 36.241V27.2482C41.0369 26.0065 42.0435 24.9999 43.285 24.9999H52.2779C53.5196 24.9999 54.5262 26.0065 54.5262 27.2482V36.241C54.5262 37.4827 53.5196 38.4893 52.2779 38.4893Z" fill="white"/>
<path d="M12.7087 34.4954H15.4921C15.6942 34.4954 15.8079 34.4828 15.8333 34.4574C15.8585 34.4321 15.8712 34.3184 15.8712 34.1162V31.4304C15.8712 31.2284 15.8585 31.1146 15.8333 31.0892C15.8079 31.064 15.6942 31.0513 15.4921 31.0513H12.7087C12.5065 31.0513 12.3928 31.064 12.3676 31.0892C12.3422 31.1146 12.3297 31.2284 12.3297 31.4304V34.1162C12.3297 34.3184 12.3422 34.4321 12.3676 34.4574C12.3928 34.4828 12.5065 34.4954 12.7087 34.4954ZM10.911 35.9141V27.5748H12.3297V29.6326H15.7954C16.2069 29.6326 16.5589 29.7788 16.8513 30.0712C17.1437 30.3635 17.2899 30.7155 17.2899 31.1272V34.4195C17.2899 34.831 17.1437 35.183 16.8513 35.4754C16.5589 35.7678 16.2069 35.9141 15.7954 35.9141H10.911Z" fill="white"/>
<path d="M20.0771 34.4954H23.2395V33.3365H19.698V34.1162C19.698 34.3184 19.7106 34.4321 19.736 34.4574C19.7611 34.4828 19.8748 34.4954 20.0771 34.4954ZM19.7738 35.9141C19.3623 35.9141 19.0103 35.7678 18.7179 35.4754C18.4255 35.183 18.2793 34.831 18.2793 34.4195V32.0585H23.2395V31.4304C23.2395 31.2284 23.2267 31.1146 23.2016 31.0892C23.1762 31.064 23.0625 31.0513 22.8604 31.0513H18.2793V29.6326H23.1637C23.5752 29.6326 23.9272 29.7788 24.2196 30.0712C24.512 30.3635 24.6583 30.7155 24.6583 31.1272V35.9141H19.7738Z" fill="white"/>
<path d="M25.6476 35.9141V29.6326H30.532C30.9435 29.6326 31.2954 29.7788 31.5879 30.0712C31.8803 30.3635 32.0265 30.7155 32.0265 31.1272V35.9141H30.6078V31.4304C30.6078 31.2284 30.5951 31.1146 30.5699 31.0892C30.5445 31.064 30.4308 31.0513 30.2287 31.0513H27.4453C27.2431 31.0513 27.1294 31.064 27.1043 31.0892C27.0789 31.1146 27.0662 31.2284 27.0662 31.4304V35.9141H25.6476Z" fill="white"/>
<path d="M33.0155 35.9141V27.5748H34.4342V32.0585H35.5497L37.7917 29.6326H39.3079V30.0225L36.8061 32.7732L39.297 35.5241V35.9141H37.7917L35.5497 33.4881H34.4342V35.9141H33.0155Z" fill="white"/>
<path d="M47.6976 34.4954H50.481C50.6829 34.4954 50.7965 34.4828 50.822 34.4574C50.8472 34.4321 50.8599 34.3184 50.8599 34.1162V31.4304C50.8599 31.2284 50.8472 31.1146 50.822 31.0892C50.7965 31.064 50.6829 31.0513 50.481 31.0513H47.6976C47.4953 31.0513 47.3816 31.064 47.3564 31.0892C47.3308 31.1146 47.3183 31.2284 47.3183 31.4304V34.1162C47.3183 34.3184 47.3308 34.4321 47.3564 34.4574C47.3816 34.4828 47.4953 34.4954 47.6976 34.4954ZM47.3833 35.9141C46.9719 35.9141 46.6199 35.7678 46.3274 35.4754C46.035 35.183 45.8888 34.831 45.8888 34.4195V31.1272C45.8888 30.7155 46.035 30.3635 46.3274 30.0712C46.6199 29.7788 46.9719 29.6326 47.3833 29.6326H50.8599V27.5748H52.2786V35.9141H47.3833Z" fill="#545859"/>
<path d="M43.2849 30.4122V35.9141H44.7035V30.4122H43.2849Z" fill="#545859"/>
<path d="M43.2849 28.9932V27.5745H44.7035V28.9932H43.2849Z" fill="#545859"/>
</svg>
