<svg width="64" height="64" viewBox="0 0 64 64" fill="none" xmlns="http://www.w3.org/2000/svg">
<path d="M32 63C23.0304 63 17.4351 62.7706 13.5728 62.0417C9.78218 61.3263 7.72087 60.1413 5.7898 58.2102L5.08268 58.9173L5.78978 58.2102C3.84518 56.2656 2.66075 54.2042 1.94872 50.4181C1.22297 46.559 1 40.9705 1 32C1 23.0303 1.22943 17.4417 1.95832 13.5827C2.67346 9.79652 3.8581 7.73379 5.7909 5.78868C7.72166 3.85821 9.7829 2.6736 13.5728 1.95835C17.4351 1.22943 23.0304 1 32 1C40.9696 1 46.5649 1.22943 50.4272 1.95835C54.2178 2.67374 56.2791 3.85866 58.2102 5.78978L58.9173 5.08268L58.2102 5.78979C60.1548 7.73435 61.3392 9.79575 62.0512 13.5819C62.777 17.441 63 23.0295 63 32C63 40.9705 62.777 46.559 62.0512 50.4181C61.3392 54.2042 60.1548 56.2657 58.2102 58.2102L58.9173 58.9173L58.2102 58.2102C56.2791 60.1413 54.2178 61.3263 50.4272 62.0417C46.5649 62.7706 40.9696 63 32 63Z" stroke="black" stroke-width="2"/>
<path d="M24.7969 44.082C24.1133 44.082 23.5273 44.3555 23.1367 44.8828V42.1875H21.9648V44.8242C21.5742 44.3164 21.0078 44.082 20.3242 44.082C18.957 44.082 18 45.293 18 47.0703C18 48.8867 18.918 50.0586 20.3242 50.0586C21.0078 50.0586 21.5742 49.7852 21.9648 49.2578V51.9531H23.1367V49.2773C23.5273 49.8047 24.0938 50.0586 24.7969 50.0586C26.1445 50.0586 27.1211 48.8477 27.1211 47.0703C27.1211 45.2539 26.2031 44.082 24.7969 44.082ZM20.6172 49.1016C19.7383 49.1016 19.1914 48.3008 19.1914 47.0703C19.1914 45.8398 19.7383 45.0391 20.6172 45.0391C21.4766 45.0391 22.0234 45.8398 22.0234 47.0703C22.0234 48.3008 21.4766 49.1016 20.6172 49.1016ZM24.5039 49.1016C23.625 49.1016 23.0781 48.3008 23.0781 47.0703C23.0781 45.8398 23.625 45.0391 24.5039 45.0391C25.3633 45.0391 25.9297 45.8398 25.9297 47.0703C25.9297 48.3008 25.3633 49.1016 24.5039 49.1016Z" fill="black"/>
<path d="M31.0469 50.0977C32.8047 50.0977 34.0156 48.8672 34.0156 47.0703C34.0156 45.2344 32.8438 44.043 31.0469 44.043C29.2891 44.043 28.0781 45.2734 28.0781 47.0703C28.0781 48.9062 29.25 50.0977 31.0469 50.0977ZM31.0469 49.1016C29.9727 49.1016 29.2695 48.3008 29.2695 47.0703C29.2695 45.8398 29.9727 45.0391 31.0469 45.0391C32.1211 45.0391 32.8242 45.8398 32.8242 47.0703C32.8242 48.3008 32.1211 49.1016 31.0469 49.1016Z" fill="black"/>
<path d="M39.7969 44.1406H34.4062V45.1953H36.5156V50H37.6875V45.1953H39.7969V44.1406Z" fill="black"/>
<path d="M43.1562 50.0977C44.9141 50.0977 46.125 48.8672 46.125 47.0703C46.125 45.2344 44.9531 44.043 43.1562 44.043C41.3984 44.043 40.1875 45.2734 40.1875 47.0703C40.1875 48.9062 41.3594 50.0977 43.1562 50.0977ZM43.1562 49.1016C42.082 49.1016 41.3789 48.3008 41.3789 47.0703C41.3789 45.8398 42.082 45.0391 43.1562 45.0391C44.2305 45.0391 44.9336 45.8398 44.9336 47.0703C44.9336 48.3008 44.2305 49.1016 43.1562 49.1016Z" fill="black"/>
<path fill-rule="evenodd" clip-rule="evenodd" d="M37 14L40.5 14C41.3284 14 42 14.6716 42 15.5V19H40V16H37V14ZM22 15.5C22 14.6716 22.6716 14 23.5 14H27V16H24V19H22V15.5ZM22 32.5L22 29H24V32H27V34H23.5C22.6716 34 22 33.3284 22 32.5ZM42 29V32.5C42 33.3284 41.3284 34 40.5 34H37V32H40V29H42Z" fill="black"/>
<path d="M26 28C26 25.7909 27.6281 24 29.6364 24H34.3636C36.3719 24 38 25.7909 38 28C38 29.1046 37.186 30 36.1818 30H27.8182C26.814 30 26 29.1046 26 28Z" fill="black"/>
<path d="M34.4 20.4C34.4 21.7255 33.3255 22.8 32 22.8C30.6745 22.8 29.6 21.7255 29.6 20.4C29.6 19.0745 30.6745 18 32 18C33.3255 18 34.4 19.0745 34.4 20.4Z" fill="black"/>
</svg>
